<?xml version="1.0" encoding="UTF-8"?>
<svg version="1.1" xmlns="http://www.w3.org/2000/svg" width="256" height="256">
<path d="M0 0 C0.85207031 0.32742187 1.70414063 0.65484375 2.58203125 0.9921875 C17.71135712 7.52043205 27.76063757 21.61414721 33.9765625 36.30859375 C38.60543125 49.82748612 37.61095273 66.97590111 32 80 C31.67257813 80.85207031 31.34515625 81.70414062 31.0078125 82.58203125 C28.8063777 87.68389657 25.82965746 91.49121269 22.05664062 95.5534668 C21.57385399 96.07363971 21.09106735 96.59381262 20.59365082 97.12974834 C15.22262197 102.8863426 9.70478708 108.49717277 4.15625 114.08203125 C3.61740677 114.62495001 3.07856354 115.16786877 2.52339172 115.72723961 C-0.31990445 118.59113849 -3.16628081 121.45193486 -6.01513672 124.31030273 C-8.92473293 127.23101946 -11.82243178 130.16325798 -14.71776581 133.09810352 C-16.97950605 135.38615695 -19.25024899 137.66511891 -21.52339172 139.94183922 C-22.59510566 141.01836661 -23.66349504 142.09821606 -24.72819519 143.18168068 C-32.16737653 150.74396599 -39.85117914 157.85115555 -49.984375 161.53515625 C-54.8793105 163.91287751 -55.6815386 168.03391133 -57.640625 172.87109375 C-62.95199268 183.57629432 -74.5053309 192.6781467 -82.9140625 201.1171875 C-83.45540203 201.66135441 -83.99674156 202.20552132 -84.55448532 202.76617813 C-87.40867825 205.63517781 -90.26558715 208.50143744 -93.125 211.36523438 C-96.05096211 214.29671543 -98.96749298 217.23739936 -101.88202858 220.18023491 C-104.15394075 222.47086235 -106.43262267 224.75466527 -108.71314621 227.03671646 C-109.79118813 228.1177553 -110.86676525 229.20125868 -111.9396553 230.28741074 C-119.87658782 238.31558113 -127.46652841 245.20521912 -138.3125 248.8125 C-140.07013672 249.40998047 -140.07013672 249.40998047 -141.86328125 250.01953125 C-155.26355196 254.20815883 -171.11331609 253.55175255 -184 248 C-185.27810547 247.50886719 -185.27810547 247.50886719 -186.58203125 247.0078125 C-201.71135712 240.47956795 -211.76063757 226.38585279 -217.9765625 211.69140625 C-222.60543125 198.17251388 -221.61095273 181.02409889 -216 168 C-215.67257813 167.14792969 -215.34515625 166.29585937 -215.0078125 165.41796875 C-212.8063777 160.31610343 -209.82965746 156.50878731 -206.05664062 152.4465332 C-205.57385399 151.92636029 -205.09106735 151.40618738 -204.59365082 150.87025166 C-199.22262197 145.1136574 -193.70478708 139.50282723 -188.15625 133.91796875 C-187.61740677 133.37504999 -187.07856354 132.83213123 -186.52339172 132.27276039 C-183.68009555 129.40886151 -180.83371919 126.54806514 -177.98486328 123.68969727 C-175.07526707 120.76898054 -172.17756822 117.83674202 -169.28223419 114.90189648 C-167.02049395 112.61384305 -164.74975101 110.33488109 -162.47660828 108.05816078 C-161.40489434 106.98163339 -160.33650496 105.90178394 -159.27180481 104.81831932 C-151.83262347 97.25603401 -144.14882086 90.14884445 -134.015625 86.46484375 C-129.1206895 84.08712249 -128.3184614 79.96608867 -126.359375 75.12890625 C-121.04800732 64.42370568 -109.4946691 55.3218533 -101.0859375 46.8828125 C-100.2739282 46.06656214 -100.2739282 46.06656214 -99.44551468 45.23382187 C-96.59132175 42.36482219 -93.73441285 39.49856256 -90.875 36.63476562 C-87.94903789 33.70328457 -85.03250702 30.76260064 -82.11797142 27.81976509 C-79.84605925 25.52913765 -77.56737733 23.24533473 -75.28685379 20.96328354 C-74.20881187 19.8822447 -73.13323475 18.79874132 -72.0603447 17.71258926 C-64.12341218 9.68441887 -56.53347159 2.79478088 -45.6875 -0.8125 C-43.92986328 -1.40998047 -43.92986328 -1.40998047 -42.13671875 -2.01953125 C-28.73644804 -6.20815883 -12.88668391 -5.55175255 0 0 Z M-50.15258789 44.92553711 C-52.0146215 46.78788317 -53.87095118 48.65483491 -55.72265625 50.52734375 C-56.71826256 51.52669041 -57.71431891 52.52558889 -58.71080017 53.52406311 C-61.30444071 56.1252597 -63.89201273 58.73240905 -66.47827148 61.34094238 C-69.12958816 64.01289267 -71.78673258 66.67903431 -74.44335938 69.34570312 C-79.63455448 74.55820605 -84.81933809 79.77702582 -90 85 C-87.6772412 87.3227588 -85.62727615 88.1097217 -82.625 89.4375 C-68.8941388 96.25353901 -59.33601295 107.68257912 -54 122 C-48.13422558 117.1219163 -42.71082403 111.88744559 -37.3046875 106.5078125 C-36.39421661 105.60304169 -35.48374573 104.69827087 -34.54568481 103.76608276 C-32.629293 101.86012478 -30.7151817 99.95190685 -28.80224609 98.04248047 C-26.36712902 95.6128566 -23.92285875 93.19266453 -21.47633171 90.77453804 C-19.12082171 88.44226418 -16.77602541 86.09931297 -14.4296875 83.7578125 C-13.55875458 82.89922638 -12.68782166 82.04064026 -11.79049683 81.15603638 C-4.54251117 73.88145588 1.88046481 66.50194066 2.03125 55.77734375 C1.55517826 48.83859821 -0.84931244 43.49026981 -5.375 38.25 C-21.87527647 24.10690589 -36.38502658 31.48069683 -50.15258789 44.92553711 Z M-135.44042969 130.27929688 C-135.90071564 130.73461792 -136.36100159 131.18993896 -136.8352356 131.65905762 C-138.36696683 133.17611118 -139.89471275 134.69709783 -141.421875 136.21875 C-142.48463662 137.27575971 -143.54740115 138.33276651 -144.61016846 139.38977051 C-146.84493672 141.61400944 -149.07734543 143.84058981 -151.30859375 146.06835938 C-154.15414288 148.90845455 -157.00881988 151.73917863 -159.86588669 154.56768036 C-162.0690059 156.75206615 -164.26528217 158.94323794 -166.45981598 161.13624573 C-167.50819442 162.18161539 -168.55905208 163.22450525 -169.61251068 164.26475525 C-181.78445565 176.21683912 -181.78445565 176.21683912 -186.03125 192.22265625 C-185.55517826 199.16140179 -183.15068756 204.50973019 -178.625 209.75 C-172.07247095 215.36645347 -166.21431172 218.48995143 -157.5 217.875 C-143.75444635 215.76029944 -134.36321375 203.51771249 -125.0546875 194.15234375 C-124.15879913 193.25504044 -123.26291077 192.35773712 -122.33987427 191.4332428 C-119.99386207 189.08262937 -117.65003495 186.72986731 -115.30731201 184.37597656 C-112.90205934 181.96037188 -110.49386333 179.54770514 -108.0859375 177.13476562 C-103.38795384 172.42583438 -98.69284615 167.71405094 -94 163 C-96.3227588 160.6772412 -98.37272385 159.8902783 -101.375 158.5625 C-115.1058612 151.74646099 -124.66398705 140.31742088 -130 126 C-132.09325964 126 -134.10121469 128.95102755 -135.44042969 130.27929688 Z " fill="#4AAEE2" transform="translate(220,4)"/>
<path d="M0 0 C0.85207031 0.32742187 1.70414063 0.65484375 2.58203125 0.9921875 C17.71135712 7.52043205 27.76063757 21.61414721 33.9765625 36.30859375 C38.60543125 49.82748612 37.61095273 66.97590111 32 80 C31.67257813 80.85207031 31.34515625 81.70414062 31.0078125 82.58203125 C28.8063777 87.68389657 25.82965746 91.49121269 22.05664062 95.5534668 C21.57385399 96.07363971 21.09106735 96.59381262 20.59365082 97.12974834 C15.22262197 102.8863426 9.70478708 108.49717277 4.15625 114.08203125 C3.61740677 114.62495001 3.07856354 115.16786877 2.52339172 115.72723961 C-0.31990445 118.59113849 -3.16628081 121.45193486 -6.01513672 124.31030273 C-8.92473293 127.23101946 -11.82243178 130.16325798 -14.71776581 133.09810352 C-16.97950605 135.38615695 -19.25024899 137.66511891 -21.52339172 139.94183922 C-22.59510566 141.01836661 -23.66349504 142.09821606 -24.72819519 143.18168068 C-37.80471052 156.4745869 -51.53870189 165.05022291 -70.49682617 165.38037109 C-89.04838845 165.34245801 -102.98067117 161.18889354 -116.74609375 148.28515625 C-122.41369664 142.53897308 -127.36699876 135.70251109 -130 128 C-129.63338978 124.15059265 -127.77798851 122.6153326 -124.86328125 120.1484375 C-117.97235963 115.90120279 -109.41732352 116.00516597 -101.66015625 117.4296875 C-97.7215223 118.69317007 -95.1452615 120.63940486 -92.125 123.4375 C-87.05333138 128.08488506 -81.93526045 130.79662737 -74.9765625 131.15625 C-65.24272344 130.66588027 -59.74482832 127.81397284 -53 121 C-51.40015214 119.41388416 -49.79919842 117.82888314 -48.19726562 116.24487305 C-43.61358032 111.70919869 -39.03654203 107.16691902 -34.4642868 102.61972332 C-31.70784075 99.87893591 -28.94865151 97.14103116 -26.18310547 94.40942383 C-23.49280573 91.75190919 -20.81007282 89.08696191 -18.13224792 86.41687965 C-17.11750892 85.40763946 -16.1001544 84.40102131 -15.08003235 83.39722252 C-7.04662594 75.48736945 0.8638664 67.68250222 1.03125 55.77734375 C0.55644916 48.85712152 -1.8870918 43.58244336 -6.25 38.25 C-12.14081884 33.43023913 -18.29094695 30.70546807 -26 31 C-38.77048534 32.91355853 -46.91346565 42.68631615 -55.40625 51.59765625 C-56.87819614 53.11763197 -58.35404896 54.63374943 -59.82996368 56.14987087 C-63.43441432 59.85269434 -67.03025125 63.5628414 -70.58935547 67.30932617 C-73.08514849 69.93486861 -75.60708704 72.53261896 -78.14836121 75.11413383 C-79.10571637 76.09674685 -80.05306647 77.08921612 -80.98970032 78.09160042 C-88.30185166 85.90391323 -88.30185166 85.90391323 -92.44239807 86.13819885 C-94.74206202 85.61196788 -96.80940184 84.86586445 -99 84 C-102.03788601 83.71908108 -102.03788601 83.71908108 -104.83984375 83.76953125 C-105.83951172 83.77146484 -106.83917969 83.77339844 -107.86914062 83.77539062 C-108.88169922 83.78763672 -109.89425781 83.79988281 -110.9375 83.8125 C-112.49694336 83.8134668 -112.49694336 83.8134668 -114.08789062 83.81445312 C-119.20920646 83.62598148 -119.20920646 83.62598148 -124 85 C-125.99960012 85.039992 -128.00047242 85.04346799 -130 85 C-126.33898634 71.04238544 -115.99621572 61.54035157 -106.06640625 51.66796875 C-104.82101015 50.42054579 -103.57605917 49.1726783 -102.33152771 47.9243927 C-99.73846922 45.32694297 -97.14014466 42.73491553 -94.5378418 40.14672852 C-91.22158806 36.8476004 -87.91903789 33.53513311 -84.62031651 30.21848583 C-82.05796209 27.64523722 -79.48843912 25.07924212 -76.9167614 22.5153141 C-75.69668064 21.29721793 -74.47877806 20.07693559 -73.26321602 18.85433006 C-64.94738324 10.50087851 -57.06934555 2.97300814 -45.6875 -0.8125 C-44.51574219 -1.21082031 -43.34398437 -1.60914063 -42.13671875 -2.01953125 C-28.73644804 -6.20815883 -12.88668391 -5.55175255 0 0 Z " fill="#A2E0FE" transform="translate(220,4)"/>
</svg>
